Coordinates
version=1
nRows=11
nColumns=36
inDegrees=yes

Units are S.I. units (second, meters, Newtons, ...)
If the header above contains a line with 'inDegrees', this indicates whether rotational values are in degrees (yes) or radians (no).

endheader
time	pelvis_tilt	pelvis_list	pelvis_rotation	pelvis_tx	pelvis_ty	pelvis_tz	hip_flexion_r	hip_adduction_r	hip_rotation_r	knee_angle_r	knee_angle_r_beta	ankle_angle_r	subtalar_angle_r	mtp_angle_r	hip_flexion_l	hip_adduction_l	hip_rotation_l	knee_angle_l	knee_angle_l_beta	ankle_angle_l	subtalar_angle_l	mtp_angle_l	lumbar_extension	lumbar_bending	lumbar_rotation	arm_flex_r	arm_add_r	arm_rot_r	elbow_flex_r	pro_sup_r	arm_flex_l	arm_add_l	arm_rot_l	elbow_flex_l	pro_sup_l
      6.06666670	     -6.54934406	     -0.17709462	     10.36754791	      1.21251349	      0.88074693	      0.02468309	     44.58227014	     -1.93976300	     -0.56214403	     43.01792836	      0.75080449	     19.72604926	      4.82707094	     -7.49999987	     24.01023780	      5.36093038	     -1.00741169	     34.77988148	      0.60702345	     25.08725916	     -9.58314638	     -7.49999987	     -7.98417793	     -6.53571360	      6.22369427	     27.31787852	      1.05923537	     66.34128270	    115.87909117	     97.50639646	     42.73558308	     -5.04038921	     66.82532365	    119.66013653	     97.95135254
      6.08333330	     -5.64947215	      0.34098731	     10.64460537	      1.21083320	      0.87891755	      0.02540987	     44.91496894	     -2.16025705	     -0.29701421	     41.25371769	      0.72001320	     18.23815130	      5.39908442	     -7.49999987	     23.45524127	      6.08034525	     -0.67918628	     35.54406466	      0.62036096	     25.50081291	     -9.95673793	     -7.49999987	    -10.01428522	     -6.93299913	      5.76756162	     28.04005658	      1.37699493	     66.36076860	    115.95212970	    100.55479939	     43.91626560	     -5.02051616	     66.52434953	    119.62363203	    101.22147870
      6.10000000	     -4.98539038	      0.95499852	     10.98661423	      1.20841387	      0.87428427	      0.02521465	     45.91203662	     -2.63252814	      0.01688389	     40.20363366	      0.70168578	     16.84905680	      5.80694613	     -7.49999987	     23.75547013	      6.77645509	     -0.71013431	     37.16618472	      0.64867229	     26.22290671	    -10.35962008	     -7.49999987	    -12.02345619	     -7.50004743	      5.38130316	     28.70901351	      1.64126835	     66.07980688	    115.87654190	    100.37361630	     44.96845874	     -5.10727385	     66.27377049	    119.95917272	    101.06045519
      6.11666670	     -4.08293857	      1.61854608	     11.45787406	      1.20575896	      0.86997876	      0.02608951	     46.78657961	     -3.18551609	      0.52143768	     39.50282501	      0.68945436	     15.62991328	      5.91722159	     -7.49999987	     24.12604340	      7.32942331	     -0.96397349	     39.14708168	      0.68324547	     27.02183585	    -10.77184173	     -7.49999987	    -14.38555552	     -8.10097538	      4.71178308	     29.67971992	      2.18383510	     65.53472010	    116.10605592	    100.00526000	     46.24980336	     -5.26233953	     65.76683522	    120.42621578	    100.65838928
      6.13333330	     -2.79735666	      2.38461392	     12.05538560	      1.19788474	      0.86963687	      0.02888341	     47.07246525	     -3.80107438	      1.08712964	     38.86522455	      0.67832613	     14.02425167	      5.60861230	     -7.49999987	     24.20816967	      7.83965440	     -1.33624788	     41.24946136	      0.71993892	     27.80543604	    -11.24249840	     -7.49999987	    -17.36739220	     -8.65872215	      3.67898785	     31.04529911	      2.74770687	     64.98223455	    115.84926118	     99.78890461	     47.79584703	     -5.80238130	     64.98809088	    120.73936790	    100.34863393
      6.15000000	     -1.79949061	      3.23574476	     12.66301022	      1.20039682	      0.86496448	      0.02531465	     47.48358666	     -4.67267576	      1.59950108	     38.44514611	      0.67099438	     12.81256911	      5.48696538	     -7.49999987	     24.20624511	      8.51409795	     -1.60813977	     42.91939601	      0.74908477	     28.81317277	    -11.48634763	     -7.49999987	    -19.44096036	     -9.26929412	      2.73019257	     31.56902002	      2.91452936	     64.87175687	    116.21202193	     99.72794403	     48.70870115	     -5.85870770	     64.07956332	    120.48936021	    100.17142086
      6.16666670	     -0.86485815	      4.14876861	     13.33133954	      1.19290630	      0.86006105	      0.02850253	     48.03069075	     -5.71561533	      2.17240321	     38.31294908	      0.66868711	     11.36155129	      5.09767064	     -7.49999987	     24.46931538	      9.29880379	     -1.83842794	     44.75205572	      0.78107072	     29.75467468	    -11.44226105	     -7.49999987	    -21.60871252	     -9.95032448	      1.69576388	     32.51004904	      3.28603362	     64.59135592	    116.36090735	     99.57770083	     50.20063780	     -6.18606844	     63.24747330	    120.37214118	     99.90886466
      6.18333330	      0.30683234	      5.13158155	     13.92605815	      1.19137467	      0.85859862	      0.02828111	     48.03008490	     -6.64014660	      2.88589873	     37.98825305	      0.66302009	      9.79378971	      4.23918700	     -7.49999987	     24.33020082	     10.04750663	     -2.09509886	     46.42475482	      0.81026483	     30.45108132	    -11.50793694	     -7.49999987	    -24.13715707	    -10.45143779	      0.28398797	     33.80541431	      3.71283449	     64.58672438	    116.19886759	     98.36566563	     51.31449504	     -6.93783074	     62.90768794	    121.07628583	     98.37451294
      6.20000000	      1.19069825	      5.96231534	     14.59888862	      1.18933240	      0.85284116	      0.02673549	     48.35284821	     -7.64258351	      3.43102657	     37.96757956	      0.66265927	      8.37841855	      3.78134019	     -7.49999987	     24.64112791	     10.87965758	     -2.08576007	     48.33247466	      0.84356082	     31.05906716	    -11.75637552	     -7.49999987	    -25.87494017	    -10.92409260	     -0.58549699	     34.42598148	      3.80786836	     64.11529927	    115.88202860	     98.41918259	     51.92945816	     -6.98617541	     62.84233367	    120.82096433	     98.37711728
      6.21666670	      2.18389918	      6.85164000	     15.21167853	      1.18768933	      0.85058430	      0.02737188	     48.36533816	     -8.58092916	      4.05436287	     37.91701278	      0.66177672	      6.92711745	      2.90690265	     -7.49999987	     24.74590912	     11.70003961	     -2.14303942	     50.21699009	      0.87645182	     31.45314595	    -12.18583535	     -7.49999987	    -27.85231587	    -11.37638284	     -1.57729625	     35.60605291	      3.72348237	     63.57229915	    115.54775772	     98.47082206	     52.97415077	     -7.34691399	     62.95957527	    120.77071594	     98.33685276
      6.23333330	      3.10735766	      7.64412468	     15.64798157	      1.18577009	      0.85147666	      0.02731324	     48.26112707	     -9.43767131	      4.45825832	     37.70781409	      0.65812551	      5.70784824	      2.38537097	     -7.49999987	     24.67907163	     12.41262471	     -2.17187701	     51.78993076	      0.90390481	     31.75089699	    -12.48499839	     -7.49999987	    -29.96777533	    -11.77695064	     -2.41240579	     36.47525274	      4.28532628	     62.45023720	    114.39874745	     98.44004773	     53.79869699	     -7.65089611	     63.24378900	    120.77762214	     98.20582970
